<?xml version="1.0" encoding="utf-8"?>
<!-- Generator: Adobe Illustrator 23.0.1, SVG Export Plug-In . SVG Version: 6.00 Build 0)  -->
<svg version="1.1" xmlns="http://www.w3.org/2000/svg" xmlns:xlink="http://www.w3.org/1999/xlink" x="0px" y="0px"
	 viewBox="0 0 500 500" style="enable-background:new 0 0 500 500;" xml:space="preserve">
<style type="text/css">
	.st0{clip-path:url(#SVGID_2_);fill:#ED2E38;}
	.st1{clip-path:url(#SVGID_2_);fill:#FFFFFF;}
	.st2{clip-path:url(#SVGID_4_);fill:#ED2E38;}
	.st3{clip-path:url(#SVGID_4_);fill:#FFFFFF;}
	.st4{clip-path:url(#SVGID_4_);fill:#00205B;}
	.st5{clip-path:url(#SVGID_6_);fill:#FFFFFF;}
	.st6{clip-path:url(#SVGID_6_);}
	.st7{fill:#C8102E;}
	.st8{fill:#003D7C;}
	.st9{clip-path:url(#SVGID_8_);fill:#FFFFFF;}
	.st10{clip-path:url(#SVGID_8_);}
</style>
<g id="インドネシア">
</g>
<g id="タイランド">
</g>
<g id="韓国">
	<g>
		<defs>
			<circle id="SVGID_5_" cx="250" cy="250" r="250"/>
		</defs>
		<clipPath id="SVGID_2_">
			<use xlink:href="#SVGID_5_"  style="display:none;overflow:visible;"/>
		</clipPath>
		<rect class="st1" width="500" height="500"/>
		<g style="clip-path:url(#SVGID_2_);">
			<circle class="st7" cx="250.7" cy="250.5" r="98.4"/>
			<path class="st8" d="M344,272.3c0-27.5-22.3-49.7-49.7-49.7c-18.4,0-30,7.3-44.4,25.4c-4.4,5.6-8.4,10.9-13.6,13.9
				c-7.3,4.4-16.6,7.3-24.9,7.3c-27.5,0-48.7-21.2-48.7-48.7c0-6.8,1-12.4,2.8-19.1c-8.4,14.5-13.1,31.3-13.1,49.2
				c0,53.9,44,98.1,97.9,98.4c38.1,0.2,71.3-21.3,87.8-52.8c0,0,0,0-0.1,0C341.8,289,344,280.9,344,272.3z M247.2,256.3
				C247.2,256.3,247.2,256.3,247.2,256.3C247.2,256.3,247.2,256.3,247.2,256.3z M246.5,258.4c0,0.1,0,0.1-0.1,0.2
				C246.5,258.5,246.5,258.5,246.5,258.4z M244.6,269.8c0,0.8-0.1,1.6-0.1,2.5C244.5,271.5,244.5,270.6,244.6,269.8z M245.9,260.6
				c0,0.1-0.1,0.3-0.1,0.4C245.9,260.8,245.9,260.7,245.9,260.6z M245.4,262.8c0,0.2-0.1,0.4-0.1,0.6
				C245.4,263.2,245.4,263,245.4,262.8z M245,265.1c0,0.3-0.1,0.6-0.1,0.9C245,265.7,245,265.4,245,265.1z M244.8,267.4
				c0,0.4-0.1,0.9-0.1,1.3C244.7,268.3,244.7,267.8,244.8,267.4z M296.5,322c-0.8,0-1.5,0.1-2.3,0.1C295,322,295.8,322,296.5,322z
				 M320.3,314.7c0.5-0.3,1-0.6,1.5-1C321.3,314,320.8,314.4,320.3,314.7z M297.1,321.9c0.7,0,1.3-0.1,2-0.2
				C298.5,321.8,297.8,321.9,297.1,321.9z M299.4,321.8c0.7-0.1,1.5-0.2,2.2-0.3C300.9,321.6,300.1,321.7,299.4,321.8z M302.2,321.4
				c0.6-0.1,1.2-0.2,1.8-0.3C303.4,321.2,302.8,321.3,302.2,321.4z M304.4,321c0.7-0.1,1.4-0.3,2.1-0.5
				C305.8,320.7,305.1,320.8,304.4,321z M307,320.4c0.6-0.1,1.1-0.3,1.7-0.5C308.1,320,307.6,320.2,307,320.4z M309.2,319.7
				c0.7-0.2,1.3-0.4,2-0.7C310.6,319.3,309.9,319.5,309.2,319.7z M311.7,318.9c0.5-0.2,1.1-0.4,1.6-0.6
				C312.7,318.5,312.2,318.7,311.7,318.9z M313.8,318c0.6-0.3,1.3-0.6,1.9-0.9C315.1,317.5,314.5,317.7,313.8,318z M316.1,317
				c0.5-0.3,1-0.5,1.5-0.8C317.1,316.4,316.6,316.7,316.1,317z M318.2,315.9c0.6-0.3,1.2-0.7,1.8-1
				C319.4,315.2,318.8,315.5,318.2,315.9z M327.8,309c0.5-0.4,1-0.9,1.4-1.3C328.8,308.1,328.3,308.6,327.8,309z M322.3,313.3
				c0.5-0.3,0.9-0.7,1.4-1C323.3,312.7,322.8,313,322.3,313.3z M324.1,312.1c0.5-0.4,1-0.8,1.5-1.2
				C325.1,311.3,324.6,311.7,324.1,312.1z M326.2,310.4c0.4-0.3,0.8-0.7,1.2-1C327,309.7,326.6,310.1,326.2,310.4z M337,297.8
				c0.3-0.5,0.6-1.1,1-1.7C337.6,296.7,337.3,297.2,337,297.8z M329.7,307.1c0.3-0.3,0.7-0.7,1-1
				C330.4,306.4,330.1,306.8,329.7,307.1z M331.2,305.6c0.4-0.5,0.9-1,1.3-1.5C332.1,304.6,331.6,305.1,331.2,305.6z M332.9,303.5
				c0.3-0.4,0.6-0.7,0.9-1.1C333.5,302.8,333.2,303.2,332.9,303.5z M334.3,301.8c0.4-0.5,0.8-1,1.1-1.6
				C335,300.8,334.7,301.3,334.3,301.8z M335.8,299.6c0.3-0.4,0.5-0.8,0.8-1.2C336.3,298.9,336,299.3,335.8,299.6z"/>
		</g>
		<g style="clip-path:url(#SVGID_2_);">
			<g>
				<rect x="45.1" y="138.8" transform="matrix(0.5592 -0.829 0.829 0.5592 -80.1525 143.5076)" width="99.5" height="16.6"/>
				<rect x="65.8" y="152.7" transform="matrix(0.5592 -0.829 0.829 0.5592 -82.5933 166.7301)" width="99.5" height="16.6"/>
				<rect x="25.4" y="125.5" transform="matrix(0.5592 -0.829 0.829 0.5592 -77.8134 121.2527)" width="99.5" height="16.6"/>
			</g>
			<g>
				<rect x="354.8" y="139.9" transform="matrix(0.5592 0.829 -0.829 0.5592 301.1477 -270.0514)" width="99.5" height="16.6"/>
				<rect x="346" y="131.4" transform="matrix(0.5592 0.829 -0.829 0.5592 278.4307 -244.1847)" width="45.6" height="16.6"/>
				<rect x="376.2" y="176.1" transform="matrix(0.5592 0.829 -0.829 0.5592 328.7462 -249.4731)" width="45.6" height="16.6"/>
				<rect x="386.4" y="104.2" transform="matrix(0.5592 0.829 -0.829 0.5592 273.6509 -289.6621)" width="45.6" height="16.6"/>
				<rect x="416.5" y="148.9" transform="matrix(0.5592 0.829 -0.829 0.5592 323.9663 -294.9505)" width="45.6" height="16.6"/>
			</g>
			<g>
				<rect x="387.5" y="380.2" transform="matrix(0.5592 -0.829 0.829 0.5592 -141.2702 511.3815)" width="45.6" height="16.6"/>
				<rect x="417.6" y="335.6" transform="matrix(0.5592 -0.829 0.829 0.5592 -90.9548 516.6699)" width="45.6" height="16.6"/>
				<rect x="347.1" y="353" transform="matrix(0.5592 -0.829 0.829 0.5592 -136.4903 465.9041)" width="45.6" height="16.6"/>
				<rect x="377.2" y="308.3" transform="matrix(0.5592 -0.829 0.829 0.5592 -86.1749 471.1924)" width="45.6" height="16.6"/>
				<rect x="366.8" y="366.3" transform="matrix(0.5592 -0.829 0.829 0.5592 -138.8294 488.159)" width="45.6" height="16.6"/>
				<rect x="397" y="321.7" transform="matrix(0.5592 -0.829 0.829 0.5592 -88.514 493.4474)" width="45.6" height="16.6"/>
			</g>
			<g>
				<rect x="24.9" y="357.7" transform="matrix(0.5592 0.829 -0.829 0.5592 336.3267 99.4062)" width="99.5" height="16.6"/>
				<rect x="57.4" y="321.4" transform="matrix(0.5592 0.829 -0.829 0.5592 308.7282 78.8279)" width="45.6" height="16.6"/>
				<rect x="87.6" y="366.1" transform="matrix(0.5592 0.829 -0.829 0.5592 359.0436 73.5395)" width="45.6" height="16.6"/>
				<rect x="66.2" y="329.9" transform="matrix(0.5592 0.829 -0.829 0.5592 331.4451 52.9612)" width="99.5" height="16.6"/>
			</g>
		</g>
	</g>
</g>
<g id="日本">
</g>
</svg>
