<svg xmlns="http://www.w3.org/2000/svg" viewBox="0 0 240 240"><defs><style>.cls-1{fill:#2f303a;}</style></defs><title>icon</title><g id="all"><path id="path" class="cls-1" d="M170,175c-36.339,0-51.354-32.438-59.487-56.838C100.563,88.312,88.068,75,70,75a40,40,0,1,0,.523,80,39.622,39.622,0,0,0,20.469-5.937,3.971,3.971,0,0,1,5.252,1.031l7.22,9.635a4.02,4.02,0,0,1-1.075,5.792A59.45,59.45,0,0,1,70.274,175,60,60,0,1,1,70,55c40.541,0,54.8,42.78,59.487,56.838C139.571,142.092,151.688,155,170,155a40,40,0,1,0-.581-80,39.611,39.611,0,0,0-20.46,5.966,3.971,3.971,0,0,1-5.254-1.023l-7.233-9.625a4.02,4.02,0,0,1,1.066-5.793A59.446,59.446,0,0,1,169.651,55,60,60,0,1,1,170,175Z"/></g></svg>