<?xml version="1.0" encoding="UTF-8"?>
<svg width="24px" height="24px" viewBox="0 0 24 24" version="1.1" xmlns="http://www.w3.org/2000/svg" xmlns:xlink="http://www.w3.org/1999/xlink">
    <!-- Generator: Sketch 53 (72520) - https://sketchapp.com -->
    <title>Icon / category / all_inclusivewh</title>
    <desc>Created with Sketch.</desc>
    <defs>
        <path d="M16.8090604,17.9954329 C13.371557,17.8588169 11.9232222,14.688958 11.1303047,12.2917176 C10.1623038,9.36370584 8.94863589,7.98093105 7.22255083,7.85539208 C5.18296545,7.7067761 3.27813021,9.18555128 2.90596317,11.2098671 C2.42104602,13.8461854 4.42763136,16.153887 6.95855056,16.153887 C7.71205132,16.153887 8.43255204,15.9535785 9.06871935,15.5705 C9.27771956,15.4449611 9.54355316,15.4809612 9.6893033,15.6766543 L10.2402205,16.416965 C10.3969707,16.6274274 10.3538873,16.9375825 10.1320537,17.0788138 C9.29971958,17.6095852 8.35921864,17.9188172 7.37196765,17.985279 C4.11871438,18.2077414 1.08729468,15.4403457 1.00204459,12.1597171 C0.914961172,8.77847272 3.62096388,6 6.95855056,6 C10.9808879,6 12.4026394,10.2960173 12.8701398,11.7074076 C13.9013909,14.8228047 15.1480588,16.1529639 17.0409773,16.153887 C18.8898959,16.153887 20.4995641,14.9871131 21.0000646,13.1954136 C21.7828988,10.39571 19.7020633,7.84616127 17.041894,7.84616127 C16.2874766,7.84616127 15.5642259,8.04831593 14.9271419,8.43231748 C14.7190583,8.55785644 14.4532247,8.52277938 14.3065579,8.32708628 L13.7538074,7.58769869 C13.5961406,7.37723631 13.6392239,7.06708122 13.8592241,6.92677296 C14.8098084,6.3193859 15.9006429,6 17.041894,6 C20.7030643,6 23.6043173,9.34339807 22.8920665,13.1575673 C22.355816,16.027425 19.7066467,18.110818 16.8090604,17.9954329" id="path-1"></path>
    </defs>
    <g id="Icon-/-category-/-all_inclusive" stroke="none" stroke-width="1" fill="none" fill-rule="evenodd">
        <mask id="mask-2" fill="white">
            <use xlink:href="#path-1"></use>
        </mask>
        <use id="Mask" fill="#2F303A" xlink:href="#path-1"></use>
        <g id="＊-/-Color-/-Icons-/-Tonal-100" mask="url(#mask-2)" fill="#FFFFFF">
            <rect id="Rectangle-13" x="0" y="0" width="24" height="24"></rect>
        </g>
    </g>
</svg>