<svg xmlns="http://www.w3.org/2000/svg" viewBox="0 0 240 240"><defs><style>.cls-1{fill:#2f303a;}</style></defs><title>icon</title><g id="account"><path id="outline" class="cls-1" d="M120,220a79.638,79.638,0,0,0,56.76-23.777l-10.606-25.454a50,50,0,0,0-92.308,0L63.24,196.223A79.637,79.637,0,0,0,120,220Zm0-100a40,40,0,1,1,40-40A40,40,0,0,1,120,120Zm0-20a20,20,0,1,0-20-20A20,20,0,0,0,120,100Zm.028,140h-.056a120,120,0,1,1,.056,0Zm-74.5-53.263,9.859-23.66a70,70,0,0,1,129.23,0l9.859,23.66a100,100,0,1,0-148.948,0Z"/></g></svg>