<svg xmlns="http://www.w3.org/2000/svg" viewBox="0 0 240 240"><defs><style>.cls-1{fill:#2f303a;}</style></defs><title>icon</title><g id="fashion"><path id="path" class="cls-1" d="M190.207,210H49.791a26.343,26.343,0,0,1-15.028-47.967l75.231-53.163.008-8.625a8.759,8.759,0,0,1,2.622-6.26c2.434-2.392,5.253-4.844,8.175-7.374,8.047-6.98,17.174-14.877,17.174-21.951a17.555,17.555,0,0,0-35.1,0,8.775,8.775,0,1,1-17.55,0,35.1,35.1,0,0,1,70.2,0c0,15.092-12.881,26.256-23.233,35.225-1.637,1.415-3.239,2.8-4.739,4.159l-.007,9.371a8.775,8.775,0,0,1-3.711,7.169L44.84,176.412a8.783,8.783,0,0,0,4.952,16.026H190.207a8.779,8.779,0,0,0,5-15.983L141.5,139.078a8.783,8.783,0,0,1,10.027-14.422l53.71,37.377A26.344,26.344,0,0,1,190.207,210Z"/></g></svg>