<?xml version="1.0" encoding="UTF-8"?>
<svg width="24px" height="24px" viewBox="0 0 24 24" version="1.1" xmlns="http://www.w3.org/2000/svg" xmlns:xlink="http://www.w3.org/1999/xlink">
    <!-- Generator: Sketch 53 (72520) - https://sketchapp.com -->
    <title>Icon / category / campaignwh</title>
    <desc>Created with Sketch.</desc>
    <defs>
        <path d="M8.42425526,15.0268371 L9.01340487,14.4376875 C8.36770976,13.522682 8.47114334,12.2300225 9.31203367,11.3891321 C10.249292,10.4518738 11.7478004,10.4307863 12.6590459,11.3420318 C13.5702914,12.2532773 13.5492039,13.7517857 12.6119456,14.689044 C11.8284721,15.4725175 10.6528179,15.6158046 9.7558411,15.1094648 L9.13136204,15.7339439 L13.0991304,19.7017123 C13.4745272,20.077109 13.3613312,20.720457 12.8763214,20.968045 C9.579692,22.6509102 6.61475331,22.268302 4.17376451,19.8273132 C1.73277572,17.3863244 1.35016754,14.4213857 3.03303265,11.1247563 C3.2806207,10.6397465 3.92396867,10.5265505 4.2993654,10.9019473 L8.42425526,15.0268371 Z M3.97971992,12.8450435 C3.16227151,15.085112 3.60252426,16.9933312 5.30513536,18.6959423 C7.00774646,20.3985534 8.91596571,20.8388062 11.1560342,20.0213578 L3.97971992,12.8450435 Z M10.3963042,13.6047735 C10.7000527,13.908522 11.1995555,13.9014928 11.5119749,13.5890734 C11.8243944,13.276654 11.8314235,12.7771512 11.527675,12.4734027 C11.2239265,12.1696542 10.7244237,12.1766833 10.4120043,12.4891028 C10.0995849,12.8015222 10.0925557,13.301025 10.3963042,13.6047735 Z M11.1081032,8.45664011 C10.5715311,8.58744084 10.0305185,8.25849816 9.89971776,7.72192606 C9.76891703,7.18535397 10.0978597,6.6443414 10.6344318,6.51354067 C12.5090816,6.05655535 14.2735189,6.6447011 15.821015,8.19219717 C17.368511,9.73969324 17.9566568,11.5041305 17.4996715,13.3787803 C17.3688707,13.9153524 16.8278582,14.2442951 16.2912861,14.1134944 C15.754714,13.9826936 15.4257713,13.4416811 15.556572,12.905109 C15.8387244,11.7476604 15.4840611,10.6836705 14.4068014,9.60641073 C13.3295416,8.52915098 12.2655517,8.17448768 11.1081032,8.45664011 Z M10.7138302,4.57658377 C10.1722705,4.68489572 9.64544537,4.33367898 9.53713342,3.79211923 C9.42882147,3.25055947 9.7800382,2.72373437 10.321598,2.61542242 C13.4100423,1.99773354 16.2200872,2.93441516 18.6494421,5.36377005 C21.078797,7.79312494 22.0154786,10.6031698 21.3977897,13.6916142 C21.2894778,14.2331739 20.7626526,14.5843907 20.2210929,14.4760787 C19.6795331,14.3677668 19.3283164,13.8409416 19.4366284,13.2993819 C19.9188834,10.8881069 19.2056492,8.74840425 17.2352285,6.77798361 C15.2648079,4.80756297 13.1251053,4.09432876 10.7138302,4.57658377 Z" id="path-1"></path>
    </defs>
    <g id="Icon-/-category-/-campaign" stroke="none" stroke-width="1" fill="none" fill-rule="evenodd">
        <mask id="mask-2" fill="white">
            <use xlink:href="#path-1"></use>
        </mask>
        <use id="Mask" fill="#000000" fill-rule="nonzero" xlink:href="#path-1"></use>
        <g id="＊-/-Color-/-Icons-/-Tonal-100" mask="url(#mask-2)" fill="#FFFFFF">
            <rect id="Rectangle-13" x="0" y="0" width="24" height="24"></rect>
        </g>
    </g>
</svg>