<svg xmlns="http://www.w3.org/2000/svg" viewBox="0 0 240 240"><defs><style>.cls-1{fill:#2f303a;}</style></defs><title>icon</title><g id="food"><path id="path" class="cls-1" d="M149.871,169.97l-.531-36.032-14.823-14.453a14.86,14.86,0,0,1-3.348-16.44l39.6-93.81a15.269,15.269,0,0,1,19.873-8.077A15,15,0,0,1,200,15V230a10.133,10.133,0,0,1-20.264,0V40l-28.548,67.623,13.9,13.553A14.9,14.9,0,0,1,169.6,131.85l.531,38.12a10.132,10.132,0,0,1-20.263,0ZM90,111.705A30.013,30.013,0,0,1,110,140v90a10,10,0,0,1-20,0V140a10,10,0,1,0-20,0v90a10,10,0,0,1-20,0V140a30.013,30.013,0,0,1,20-28.293V98.739A40.016,40.016,0,0,1,40,60V10a10,10,0,0,1,20,0V60A19.991,19.991,0,0,0,70,77.324V10a10,10,0,1,1,20,0V77.322A19.988,19.988,0,0,0,100,60V10a10,10,0,0,1,20,0V60A40.015,40.015,0,0,1,90,98.738Z"/></g></svg>