<svg xmlns="http://www.w3.org/2000/svg" viewBox="0 0 240 240"><defs><style>.cls-1{fill:#2f303a;}</style></defs><title>icon</title><g id="plus"><path id="path" class="cls-1" d="M125.293,68H114.707a5.107,5.107,0,0,0-5.107,5.107v31.386a5.108,5.108,0,0,1-5.107,5.107H73.107A5.108,5.108,0,0,0,68,114.707v10.586a5.108,5.108,0,0,0,5.107,5.107h31.386a5.108,5.108,0,0,1,5.107,5.107v31.386A5.108,5.108,0,0,0,114.707,172h10.586a5.108,5.108,0,0,0,5.107-5.107V135.507a5.108,5.108,0,0,1,5.107-5.107h31.386A5.108,5.108,0,0,0,172,125.293V114.707a5.108,5.108,0,0,0-5.107-5.107H135.507a5.108,5.108,0,0,1-5.107-5.107V73.107A5.107,5.107,0,0,0,125.293,68Z"/></g></svg>