<svg xmlns="http://www.w3.org/2000/svg" viewBox="0 0 240 240"><defs><style>.cls-1{fill:#2f303a;}</style></defs><title>icon</title><g id="search"><path id="outline" class="cls-1" d="M226.527,212.384l-46.241-46.24A89.561,89.561,0,0,0,200,110c0-49.652-40.731-90.208-90.382-90A90.1,90.1,0,0,0,20,109.618C19.793,159.269,60.349,200,110,200a89.561,89.561,0,0,0,56.143-19.714l46.24,46.241a4,4,0,0,0,5.657,0l8.486-8.486A4,4,0,0,0,226.527,212.384ZM40,110a70,70,0,1,1,70,70A70.079,70.079,0,0,1,40,110Z"/></g></svg>