<svg xmlns="http://www.w3.org/2000/svg" viewBox="0 0 240 240"><defs><style>.cls-1{fill:#2f303a;}</style></defs><title>icon</title><g id="spot"><g id="outline"><path class="cls-1" d="M119.989,230c-8.539,0-31.227-4.18-57.4-42.9C45.312,161.549,35,132.726,35,110c0-51.309,36.537-90,84.989-90,23.1,0,44.471,8.855,60.172,24.935,16.6,17,25.412,40.19,24.815,65.3h0c-.51,21.434-11.508,50.6-28.7,76.1C167.426,199.467,144.228,230,119.989,230Zm0-190C101.774,40,85.2,47.166,73.312,60.176,61.5,73.1,55,90.8,55,110c0,41.208,42.036,100,64.989,100,11.143,0,28.391-18.06,39.7-34.839,14.946-22.173,24.873-47.844,25.291-65.4.468-19.681-6.325-37.742-19.128-50.854A63.428,63.428,0,0,0,119.989,40Z"/><circle class="cls-1" cx="120" cy="106" r="36"/></g></g></svg>