<svg xmlns="http://www.w3.org/2000/svg" viewBox="0 0 240 240"><defs><style>.cls-1{fill:#2f303a;}</style></defs><title>icon</title><g id="internet"><path id="outline" class="cls-1" d="M120,10A110,110,0,1,0,230,120,110,110,0,0,0,120,10Zm10,100V75.5c25.059,2.511,48.8,14.442,68.887,34.5ZM110,41.114V55.427a120.686,120.686,0,0,0-13.9,1.966A134.9,134.9,0,0,1,110,41.114ZM110,75.5V110H75.507A102.47,102.47,0,0,1,82.32,82.3,102.459,102.459,0,0,1,110,75.5ZM55.429,110H41.113A134.823,134.823,0,0,1,57.392,96.093,120.748,120.748,0,0,0,55.429,110ZM110,130v34.5c-25.059-2.511-48.8-14.442-68.888-34.5Zm20,68.888V184.573a120.776,120.776,0,0,0,13.91-1.967A134.7,134.7,0,0,1,130,198.888Zm0-34.391V130h34.494a102.4,102.4,0,0,1-6.794,27.692A102.443,102.443,0,0,1,130,164.5ZM184.575,130h14.312a134.931,134.931,0,0,1-16.28,13.908A120.775,120.775,0,0,0,184.575,130Zm19.307-42.615C181.956,68.643,156.67,57.632,130,55.427V30.559A90.234,90.234,0,0,1,203.882,87.385ZM87.393,36.115A141.171,141.171,0,0,0,67.107,67.1,141.1,141.1,0,0,0,36.118,87.385,90.491,90.491,0,0,1,87.393,36.115Zm-51.274,116.5C58.044,171.358,83.331,182.368,110,184.573v24.868A90.231,90.231,0,0,1,36.119,152.616Zm116.5,51.264A141.057,141.057,0,0,0,172.9,172.9a141.079,141.079,0,0,0,30.977-20.282A90.489,90.489,0,0,1,152.62,203.88Z"/></g></svg>