<?xml version="1.0" encoding="UTF-8"?>
<svg width="24px" height="24px" viewBox="0 0 24 24" version="1.1" xmlns="http://www.w3.org/2000/svg" xmlns:xlink="http://www.w3.org/1999/xlink">
    <!-- Generator: Sketch 53 (72520) - https://sketchapp.com -->
    <title>Icon / category / curatorwh</title>
    <desc>Created with Sketch.</desc>
    <defs>
        <path d="M10,8 C10,6.89528475 9.10471525,6 8,6 C6.89528475,6 6,6.89528475 6,8 C6,9.10471525 6.89528475,10 8,10 C9.10471525,10 10,9.10471525 10,8 Z M12,8 C12,10.2092847 10.2092847,12 8,12 C5.79071525,12 4,10.2092847 4,8 C4,5.79071525 5.79071525,4 8,4 C10.2092847,4 12,5.79071525 12,8 Z M1.34639863,22 L1,22 C0.624726074,22 0.320506449,21.6957804 0.320506449,21.3205064 C0.320506449,21.234832 0.336708672,21.1499303 0.368259071,21.0702768 L2.11283748,16.6658366 L2.15921644,16.5684605 C3.35791838,14.3686873 5.60688569,13 8.05472694,13 C10.5025682,13 12.7515355,14.3686873 13.9805559,16.6289182 L15.9373829,21.0650572 C16.0858561,21.4016468 15.9333576,21.7948678 15.596768,21.9433409 C15.5120674,21.9807032 15.4205087,22 15.3279336,22 L14.9348316,22 C14.5504883,22 14.2001551,21.7797244 14.0336025,21.433343 L12.146898,17.5095395 C11.2976449,15.9510501 9.73492077,15 8.05472694,15 C6.39086006,15 4.84219099,15.9326567 3.98751479,17.4642789 L2.2623232,21.4013504 C2.10295207,21.7650524 1.74348585,22 1.34639863,22 Z M18.4489917,7.5 C18.4489917,6.67145142 17.7722552,6 16.937185,6 C16.1021148,6 15.4253783,6.67145142 15.4253783,7.5 C15.4253783,8.32854858 16.1021148,9 16.937185,9 C17.7722552,9 18.4489917,8.32854858 18.4489917,7.5 Z M20.464734,7.5 C20.464734,9.43311808 18.8855189,11 16.937185,11 C14.9888511,11 13.4096361,9.43311808 13.4096361,7.5 C13.4096361,5.56688192 14.9888511,4 16.937185,4 C18.8855189,4 20.464734,5.56688192 20.464734,7.5 Z M14.1405558,15.0289759 L13.0613779,13.8639503 C12.9751887,13.7709047 12.980747,13.6256063 13.0737926,13.5394172 C13.0748957,13.5383954 13.0760088,13.5373844 13.0771317,13.5363845 C14.1722563,12.5479264 15.5398375,12 16.9616093,12 C19.223035,12 21.2914579,13.3805059 22.3984173,15.6090252 L23.9434495,19.1052427 C24.0856955,19.4271279 23.9400691,19.8033806 23.6181839,19.9456266 C23.5370512,19.9814804 23.4493265,20 23.3606247,20 L23.0027549,20 C22.6227702,20 22.2756172,19.7846395 22.1068277,19.4442009 L20.6430608,16.491869 C19.8715793,14.9392315 18.4643214,14 16.9616093,14 C16.0252751,14 15.1156705,14.3644363 14.3673352,15.0398554 C14.3013965,15.0986047 14.2005656,15.0937696 14.1405508,15.0289806 Z" id="path-1"></path>
    </defs>
    <g id="Icon-/-category-/-curator" stroke="none" stroke-width="1" fill="none" fill-rule="evenodd">
        <mask id="mask-2" fill="white">
            <use xlink:href="#path-1"></use>
        </mask>
        <use id="Mask" fill="#000000" fill-rule="nonzero" xlink:href="#path-1"></use>
        <g id="＊-/-Color-/-Icons-/-Tonal-100" mask="url(#mask-2)" fill="#FFFFFF">
            <rect id="Rectangle-13" x="0" y="0" width="24" height="24"></rect>
        </g>
    </g>
</svg>