<?xml version="1.0" encoding="UTF-8"?>
<svg width="24px" height="24px" viewBox="0 0 24 24" version="1.1" xmlns="http://www.w3.org/2000/svg" xmlns:xlink="http://www.w3.org/1999/xlink">
    <!-- Generator: Sketch 53 (72520) - https://sketchapp.com -->
    <title>Icon / shopping / item_add</title>
    <desc>Created with Sketch.</desc>
    <defs>
        <path d="M19.0602637,13 C19.3578154,13 19.5998117,13.2419962 19.5998117,13.539548 L19.5998117,16.8596987 C19.5998117,17.1581921 19.8418079,17.4001883 20.1403013,17.4001883 L23.460452,17.4001883 C23.7580038,17.4001883 24,17.6421846 24,17.9397363 L24,19.0602637 C24,19.3578154 23.7580038,19.5998117 23.460452,19.5998117 L20.1403013,19.5998117 C19.8418079,19.5998117 19.5998117,19.8418079 19.5998117,20.1403013 L19.5998117,23.4595104 C19.5998117,23.7580038 19.3578154,24 19.0602637,24 L17.940678,24 C17.6421846,24 17.4001883,23.7580038 17.4001883,23.4595104 L17.4001883,20.1403013 C17.4001883,19.8418079 17.1581921,19.5998117 16.8596987,19.5998117 L13.5404896,19.5998117 C13.2419962,19.5998117 13,19.3578154 13,19.0602637 L13,17.9397363 C13,17.6421846 13.2419962,17.4001883 13.5404896,17.4001883 L16.8596987,17.4001883 C17.1581921,17.4001883 17.4001883,17.1581921 17.4001883,16.8596987 L17.4001883,13.539548 C17.4001883,13.2419962 17.6421846,13 17.940678,13 L19.0602637,13 Z M13,2 C10.791,2 9,3.791 9,6 L17,6 C17,3.791 15.209,2 13,2 Z M7,20 L11.5,20 C11.776,20 12,20.224 12,20.5 L12,21.5 C12,21.776 11.776,22 11.5,22 L7,22 C5.343,22 4,20.657 4,19 L4,9 C4,7.343 5.343,6 7,6 C7,2.687 9.687,0 13,0 C16.313,0 19,2.687 19,6 C20.657,6 22,7.343 22,9 L22,11.5 C22,11.776 21.776,12 21.5,12 L20.5,12 C20.224,12 20,11.776 20,11.5 L20,9 C20,8.447 19.553,8 19,8 L7,8 C6.447,8 6,8.447 6,9 L6,19 C6,19.553 6.447,20 7,20 Z" id="path-1"></path>
    </defs>
    <g id="Icon-/-shopping-/-item_add" stroke="none" stroke-width="1" fill="none" fill-rule="evenodd">
        <mask id="mask-2" fill="white">
            <use xlink:href="#path-1"></use>
        </mask>
        <g id="Mask"></g>
        <g id="＊-/-Color-/-Icons-/-Tonal-100" mask="url(#mask-2)" fill="#FFFFFF">
            <rect id="Rectangle-13" x="0" y="0" width="24" height="24"></rect>
        </g>
    </g>
</svg>