<svg xmlns="http://www.w3.org/2000/svg" viewBox="0 0 240 240"><defs><style>.cls-1{fill:#2f303a;}</style></defs><title>icon</title><g id="item_add" data-name="item add"><g id="outline"><path class="cls-1" d="M190,166V134a4,4,0,0,0-4-4H174a4,4,0,0,0-4,4v32a4,4,0,0,1-4,4H134a4,4,0,0,0-4,4v12a4,4,0,0,0,4,4h32a4,4,0,0,1,4,4v32a4,4,0,0,0,4,4h12a4,4,0,0,0,4-4V194a4,4,0,0,1,4-4h32a4,4,0,0,0,4-4V174a4,4,0,0,0-4-4H194A4,4,0,0,1,190,166Z"/><path class="cls-1" d="M58,205V85a5.109,5.109,0,0,1,5.2-5H184.8a5.109,5.109,0,0,1,5.2,5v27.8a4,4,0,0,0,4,4h12a4,4,0,0,0,4-4V85a25.129,25.129,0,0,0-25.2-25h-.486A59.093,59.093,0,0,0,126,10h-4A59.093,59.093,0,0,0,63.686,60H63.2A25.129,25.129,0,0,0,38,85V205a25.129,25.129,0,0,0,25.2,25H99.048a4,4,0,0,0,4-4V214a4,4,0,0,0-4-4H63.2A5.109,5.109,0,0,1,58,205ZM122,30h4a39.068,39.068,0,0,1,37.952,30h-79.9A39.068,39.068,0,0,1,122,30Z"/></g></g></svg>