<?xml version="1.0" encoding="UTF-8"?>
<svg width="24px" height="24px" viewBox="0 0 24 24" version="1.1" xmlns="http://www.w3.org/2000/svg" xmlns:xlink="http://www.w3.org/1999/xlink">
    <!-- Generator: Sketch 53 (72520) - https://sketchapp.com -->
    <title>Icon / category / placewh</title>
    <desc>Created with Sketch.</desc>
    <defs>
        <path d="M12,3.67487817 C8.56577095,3.67487817 5.77777778,6.34627117 5.77777778,9.66542196 C5.77777778,12.3153668 7.35225329,15.6685039 10.5861451,19.6654187 C11.1813603,20.4010729 12.2968822,20.5428496 13.0777329,19.9820856 C13.2043149,19.8911814 13.3173659,19.7846739 13.4138549,19.6654187 C16.6477466,15.6685042 18.2222222,12.3153669 18.2222222,9.66542196 C18.2222222,6.34627117 15.4342291,3.67487817 12,3.67487817 Z M12,2 C16.4228571,2 20,5.42753868 20,9.66542196 C20,12.7472083 18.2759033,16.4189914 14.8277098,20.6807714 C14.6347317,20.9192818 14.4086297,21.1322967 14.1554659,21.3141051 C12.5937647,22.4356329 10.3627205,22.1520797 9.17228988,20.6807709 C5.72409663,16.4189911 4,12.7472082 4,9.66542196 C4,5.42753868 7.57714286,2 12,2 Z M12,13 C10.344,13 9,11.656 9,10 C9,8.344 10.344,7 12,7 C13.656,7 15,8.344 15,10 C15,11.656 13.656,13 12,13 Z" id="path-1"></path>
    </defs>
    <g id="Icon-/-category-/-place" stroke="none" stroke-width="1" fill="none" fill-rule="evenodd">
        <mask id="mask-2" fill="white">
            <use xlink:href="#path-1"></use>
        </mask>
        <use id="Mask" fill="#2F303A" fill-rule="nonzero" xlink:href="#path-1"></use>
        <g id="＊-/-Color-/-Icons-/-Tonal-100" mask="url(#mask-2)" fill="#FFFFFF">
            <rect id="Rectangle-13" x="0" y="0" width="24" height="24"></rect>
        </g>
    </g>
</svg>