<?xml version="1.0" encoding="UTF-8"?>
<svg width="24px" height="24px" viewBox="0 0 24 24" version="1.1" xmlns="http://www.w3.org/2000/svg" xmlns:xlink="http://www.w3.org/1999/xlink">
    <!-- Generator: Sketch 53 (72520) - https://sketchapp.com -->
    <title>Icon / category / dinnerwh</title>
    <desc>Created with Sketch.</desc>
    <defs>
        <path d="M9,11.1703144 C10.1651924,11.5821508 11,12.6933899 11,13.9996087 L11,22.9996087 C11,23.5518934 10.5522847,23.9996087 10,23.9996087 C9.44771525,23.9996087 9,23.5518934 9,22.9996087 L9,13.9996087 C9,13.4473239 8.55228475,12.9996087 8,12.9996087 C7.44771525,12.9996087 7,13.4473239 7,13.9996087 L7,22.9996087 C7,23.5518934 6.55228475,23.9996087 6,23.9996087 C5.44771525,23.9996087 5,23.5518934 5,22.9996087 L5,13.9996087 C5,12.6933899 5.83480763,11.5821508 7,11.1703144 L7,9.87362489 C5.2747804,9.42963787 4,7.86356874 4,5.99975869 L4,0.999608693 C4,0.447323943 4.44771525,-0.000391306725 5,-0.000391306725 C5.55228475,-0.000391306725 6,0.447323943 6,0.999608693 L6,5.99975869 C6,6.74001649 6.4022021,7.38633494 7,7.73210775 L7,0.999608693 C7,0.447323943 7.44771525,-0.000391306725 8,-0.000391306725 C8.55228475,-0.000391306725 9,0.447323943 9,0.999608693 L9,7.7319342 C9.59763245,7.3861187 9.9997,6.73989265 9.9997,5.99975869 L9.9997,0.999608693 C9.9997,0.447323943 10.4474153,-0.000391306725 10.9997,-0.000391306725 C11.5519847,-0.000391306725 11.9997,0.447323943 11.9997,0.999608693 L11.9997,5.99975869 C11.9997,7.86346071 10.7250674,9.42945632 9,9.87354767 L9,11.1703144 Z M14.9871103,16.996868 L14.9340517,13.3936641 L13.4517162,11.9482593 C13.0112224,11.5187398 12.8787955,10.8684023 13.116953,10.3042649 L17.0773375,0.923076923 C17.4001659,0.158374962 18.2899599,-0.203241202 19.064748,0.115384615 C19.631091,0.348288952 20,0.894448725 20,1.5 L20,23 C20,23.5522847 19.5463795,24 18.9868103,24 C18.4272411,24 17.9736207,23.5522847 17.9736207,23 L17.9736207,4 L15.1188,10.762376 L16.5087613,12.1177081 C16.797771,12.3995174 16.960431,12.7838023 16.960431,13.1847793 L17.0134897,16.996868 C17.0134897,17.5491528 16.5598692,17.996868 16.0003,17.996868 C15.4407308,17.996868 14.9871103,17.5491528 14.9871103,16.996868 Z" id="path-1"></path>
    </defs>
    <g id="Icon-/-category-/-dinner" stroke="none" stroke-width="1" fill="none" fill-rule="evenodd">
        <mask id="mask-2" fill="white">
            <use xlink:href="#path-1"></use>
        </mask>
        <use id="Mask" fill="#000000" fill-rule="nonzero" xlink:href="#path-1"></use>
        <g id="＊-/-Color-/-Icons-/-Tonal-100" mask="url(#mask-2)" fill="#FFFFFF">
            <rect id="Rectangle-13" x="0" y="0" width="24" height="24"></rect>
        </g>
    </g>
</svg>