<svg xmlns="http://www.w3.org/2000/svg" viewBox="0 0 240 240"><defs><style>.cls-1{fill:#2f303a;}</style></defs><title>icon</title><g id="traveler"><path id="path" class="cls-1" d="M140.083,140.566l-10.939-11.809a2.328,2.328,0,0,1,.126-3.289l.034-.031a58.7,58.7,0,0,1,39.374-15.573c22.922,0,43.888,13.993,55.108,36.582l15.661,35.438a6.46,6.46,0,0,1-5.907,9.07h-3.628a10.136,10.136,0,0,1-9.081-5.634l-14.837-29.926c-7.82-15.738-22.084-25.258-37.316-25.258a39.183,39.183,0,0,0-26.3,10.54,1.643,1.643,0,0,1-2.3-.11Zm64.1-76.315A35.757,35.757,0,1,1,168.43,28.774,35.616,35.616,0,0,1,204.186,64.251Zm-20.432,0a15.324,15.324,0,1,0-15.324,15.2A15.263,15.263,0,0,0,183.754,64.251ZM10.4,211.226H6.887a6.888,6.888,0,0,1-6.4-9.424l17.683-44.644.471-.987C30.788,133.873,53.584,120,78.4,120S126,133.873,138.461,156.783L158.3,201.749a6.752,6.752,0,0,1-6.178,9.477h-3.984A10.136,10.136,0,0,1,139,205.482L119.875,165.71c-8.608-15.8-24.448-25.438-41.479-25.438-16.866,0-32.563,9.454-41.226,24.979L19.683,205.158A10.138,10.138,0,0,1,10.4,211.226ZM118.386,69.319A40.545,40.545,0,1,1,77.841,28.774,40.543,40.543,0,0,1,118.386,69.319Zm-20.273,0A20.272,20.272,0,1,0,77.841,89.591,20.27,20.27,0,0,0,98.113,69.319Z"/></g></svg>