<svg xmlns="http://www.w3.org/2000/svg" viewBox="0 0 240 240"><defs><style>.cls-1{fill:#2f303a;}</style></defs><title>icon</title><g id="pickup"><path id="path" class="cls-1" d="M108.973,42a10.221,10.221,0,0,1-4.007-20.046c31.55-6.314,60.256,3.26,85.073,28.093s34.385,53.556,28.075,85.125a10.216,10.216,0,1,1-20.034-4.009c4.927-24.648-2.359-46.519-22.488-66.66S133.6,37.066,108.973,42ZM113,81.656A10.221,10.221,0,0,1,108.162,61.8c19.15-4.672,37.175,1.34,52.983,17.158s21.817,33.854,17.148,53.017a10.216,10.216,0,1,1-19.849-4.842c2.882-11.831-.741-22.707-11.746-33.719S124.824,78.772,113,81.656Zm-7.272,52.624a8.178,8.178,0,1,0,.161-11.4A8.057,8.057,0,0,0,105.729,134.28Zm-65.548-7.766c-8.351,22.9-3.853,42.4,13.54,59.807s36.886,21.9,59.769,13.548Zm45.4,22.3,6.018-6.022a24.36,24.36,0,0,1,3.051-31.162c9.574-9.581,24.882-9.8,34.191-.482s9.093,24.632-.481,34.213a24.412,24.412,0,0,1-29.176,4.3l-6.38,6.384L133.34,196.6a8.148,8.148,0,0,1-2.276,12.945c-33.677,17.2-63.965,13.29-88.9-11.661S13.319,142.627,30.51,108.929a8.137,8.137,0,0,1,12.936-2.277Z"/></g></svg>