<svg xmlns="http://www.w3.org/2000/svg" viewBox="0 0 240 240"><defs><style>.cls-1{fill:#2f303a;}</style></defs><title>icon</title><g id="country"><path id="path" class="cls-1" d="M120,20A100,100,0,1,0,220,120,100.116,100.116,0,0,0,120,20ZM38.273,141.558a112.3,112.3,0,0,0,12.5,1.519l22.989,7.692A11.374,11.374,0,0,0,85.133,139.4V123.846c0-16.154,18.091,0,36.182-16.154C133.4,96.9,135.392,71.7,135.385,56.151c0-2.8-4.014-12.935-8.046-20.4A84.449,84.449,0,0,1,193.657,161.5c-1.722-2.838-3.805-5.663-4.487-9.608a8.314,8.314,0,0,0-2.129-4.582L176.8,137.072a8.48,8.48,0,0,0-10.948-.987c-4.754,3.475-9.016,8.5-13.981,5.653l-3.355-1.924a15.649,15.649,0,0,0-19.886,3.664c-4.455,5.432-9.488,11.441-11.8,13.747-8.011,8.012-3.825,20.2.562,21.624,7.45,2.412,21.7-.85,31.486,2.412,7.563,2.521,9.954,3.6,15.169,5.467a25.526,25.526,0,0,0,6.077,1.281A84.335,84.335,0,0,1,38.273,141.558Z"/></g></svg>