<?xml version="1.0" encoding="UTF-8"?>
<svg width="24px" height="24px" viewBox="0 0 24 24" version="1.1" xmlns="http://www.w3.org/2000/svg" xmlns:xlink="http://www.w3.org/1999/xlink">
    <!-- Generator: Sketch 53 (72520) - https://sketchapp.com -->
    <title>Icon / category / fashionwh</title>
    <desc>Created with Sketch.</desc>
    <defs>
        <path d="M19.2687775,21 L4.73110126,21 C3.51554003,21 2.49439591,20.2756098 2.13099943,19.1543415 C1.76669446,18.0330732 2.17733248,16.8749268 3.17485583,16.2032195 L10.9633509,10.8866341 L10.9633509,10.0243902 C10.9633509,9.78819512 11.061468,9.56341463 11.2349898,9.39834146 C11.4875504,9.1595122 11.779176,8.91365854 12.0817036,8.66078049 C12.91479,7.96273171 13.8596209,7.17336585 13.8596209,6.46565854 C13.8596209,5.5235122 13.0437958,4.75609756 12.0426385,4.75609756 C11.0405727,4.75609756 10.2256561,5.5235122 10.2256561,6.46565854 C10.2256561,6.95121951 9.8195605,7.34370732 9.31716487,7.34370732 C8.81476923,7.34370732 8.40867366,6.95121951 8.40867366,6.46565854 C8.40867366,4.55502439 10.0385069,3 12.0426385,3 C14.0467701,3 15.6766033,4.55502439 15.6766033,6.46565854 C15.6766033,7.97502439 14.3429382,9.09102439 13.2709186,9.98839024 C13.1019392,10.1297561 12.9356853,10.2676098 12.7803333,10.4045854 L12.7803333,11.3414634 C12.7803333,11.6268293 12.6367917,11.8946341 12.3969501,12.0579512 L4.21871222,17.6414634 C3.7045062,17.9865366 3.8180676,18.4843902 3.86530914,18.6292683 C3.91164219,18.7732683 4.11241875,19.2439024 4.73110126,19.2439024 L19.2687775,19.2439024 C19.88746,19.2439024 20.0882366,18.7732683 20.1345696,18.6292683 C20.1818112,18.4843902 20.2953726,17.9865366 19.7866175,17.6458537 L14.2257428,13.908 C13.8141963,13.6305366 13.7124453,13.0835122 13.99862,12.684878 C14.2857033,12.2862439 14.8507848,12.1887805 15.2641483,12.4653659 L20.825023,16.2032195 C21.8234548,16.8749268 22.2331843,18.0330732 21.8688794,19.1543415 C21.5054829,20.2756098 20.4843388,21 19.2687775,21" id="path-1"></path>
    </defs>
    <g id="Icon-/-category-/-fashion" stroke="none" stroke-width="1" fill="none" fill-rule="evenodd">
        <mask id="mask-2" fill="white">
            <use xlink:href="#path-1"></use>
        </mask>
        <use id="Mask" fill="#000000" xlink:href="#path-1"></use>
        <g id="＊-/-Color-/-Icons-/-Tonal-100" mask="url(#mask-2)" fill="#FFFFFF">
            <rect id="Rectangle-13" x="0" y="0" width="24" height="24"></rect>
        </g>
    </g>
</svg>