<svg id="phone" xmlns="http://www.w3.org/2000/svg" viewBox="0 0 240 240"><defs><style>.cls-1{fill:#2f303a;}</style></defs><title>icon</title><path id="outline" class="cls-1" d="M162.229,220a92.023,92.023,0,0,1-21.285-2.625c-24.907-5.934-51.142-21.719-73.873-44.454S28.555,123.959,22.626,99.052C16.346,72.671,21.417,49.619,36.9,34.135l.658-.659c.054-.058.117-.12.175-.179l8.376-8.375a16.87,16.87,0,0,1,23.814,0L94.386,49.378a16.517,16.517,0,0,1,4.7,9.925l.175,1.734a16.54,16.54,0,0,1-2.617,10.68L77.5,100.669c4.246,9.364,11.959,22.227,25.777,36.049s26.69,21.535,36.057,25.785l28.944-19.143a16.573,16.573,0,0,1,10.609-2.625l1.75.167a16.287,16.287,0,0,1,9.976,4.708l24.461,24.461a16.85,16.85,0,0,1-.009,23.818l-9.2,9.209C194.715,214.249,179.638,220,162.229,220ZM46,49.553C37.248,60.674,34.835,76.647,39.231,95.1c5.209,21.873,19.381,45.225,39.908,65.751s43.882,34.7,65.755,39.912c18.9,4.492,35.194,1.858,46.337-7.392l11.776-11.56L178.472,157.8l-.975-.058-36.278,23.968-4.134-1.633c-15.764-6.217-31.623-17.043-45.875-31.294C73.217,130.8,64.262,113.912,59.916,102.919l-1.633-4.137L82.31,62.445l-.175-1.137L57.862,36.989,49.8,45.365a3.724,3.724,0,0,1-.546.679Z"/></svg>