<?xml version="1.0" encoding="UTF-8"?>
<svg width="24px" height="24px" viewBox="0 0 24 24" version="1.1" xmlns="http://www.w3.org/2000/svg" xmlns:xlink="http://www.w3.org/1999/xlink">
    <!-- Generator: Sketch 53 (72520) - https://sketchapp.com -->
    <title>Icon / category / countrywh</title>
    <desc>Created with Sketch.</desc>
    <defs>
        <path d="M2.19230769,14.5871077 C2.86523077,14.6969538 3.48369231,14.7689538 3.69230769,14.7689538 L6.45046154,15.6920308 C7.20461538,15.6920308 7.81569231,15.0809538 7.81569231,14.3277231 L7.81569231,12.4612615 C7.81569231,10.5237231 9.98676923,12.4612615 12.1578462,10.5237231 C13.608,9.22772308 13.8470769,6.20372308 13.8461538,4.33726154 C13.8461538,4.00218462 13.3652308,2.78556923 12.8806154,1.89110769 C18.0673846,2.3388 22.1538462,6.69849231 22.1538462,11.9997231 C22.1538462,13.8098769 21.6729231,15.5064923 20.8384615,16.9806462 C20.6326154,16.6400308 20.3824615,16.3003385 20.3003077,15.8277231 C20.2643077,15.6218769 20.1923077,15.4243385 20.0446154,15.2775692 L18.8169231,14.0489538 C18.4643077,13.6963385 17.904,13.6372615 17.5024615,13.9298769 C16.932,14.3471077 16.4206154,14.9508 15.8252308,14.6083385 L15.4218462,14.3775692 C14.6261538,13.9206462 13.6181538,14.1071077 13.0356923,14.8169538 C12.5012308,15.4695692 11.8975385,16.1895692 11.6206154,16.4664923 C10.6587692,17.4283385 11.1618462,18.8914154 11.688,19.0621846 C12.5824615,19.3511077 14.292,18.9597231 15.4661538,19.3511077 C16.3735385,19.6538769 16.6606154,19.7831077 17.2864615,20.0074154 C17.5246154,20.0932615 17.7701538,20.1366462 18.0166154,20.1606462 C16.3292308,21.4077231 14.2523077,22.1535692 12,22.1535692 C7.296,22.1535692 3.34061538,18.9348 2.19230769,14.5871077 M12,-0.000276923077 C5.38338462,-0.000276923077 0,5.38310769 0,11.9997231 C0,18.6163385 5.38338462,23.9997231 12,23.9997231 C18.6166154,23.9997231 24,18.6163385 24,11.9997231 C24,5.38310769 18.6166154,-0.000276923077 12,-0.000276923077" id="path-1"></path>
    </defs>
    <g id="Icon-/-category-/-country" stroke="none" stroke-width="1" fill="none" fill-rule="evenodd">
        <mask id="mask-2" fill="white">
            <use xlink:href="#path-1"></use>
        </mask>
        <use id="Mask" fill="#000000" xlink:href="#path-1"></use>
        <g id="＊-/-Color-/-Icons-/-Tonal-100" mask="url(#mask-2)" fill="#FFFFFF">
            <rect id="Rectangle-13" x="0" y="0" width="24" height="24"></rect>
        </g>
    </g>
</svg>