<svg xmlns="http://www.w3.org/2000/svg" viewBox="0 0 240 240"><defs><style>.cls-1{fill:#ebe369;}.cls-2{fill:#2f303a;}</style></defs><title>icon</title><g id="shopping_bag_item" data-name="shopping bag item"><g id="outline"><circle id="path" class="cls-1" cx="120" cy="150" r="40"/><path id="path-2" data-name="path" class="cls-2" d="M180,60a30,30,0,0,1,30,30V210a30,30,0,0,1-30,30H60a30,30,0,0,1-30-30V90A30,30,0,0,1,60,60a60,60,0,0,1,120,0ZM80,60h80a40,40,0,0,0-80,0ZM180,80H60A10,10,0,0,0,50,90V210a10,10,0,0,0,10,10H180a10,10,0,0,0,10-10V90A10,10,0,0,0,180,80Z"/></g></g></svg>