<svg xmlns="http://www.w3.org/2000/svg" viewBox="0 0 411.399 196.592"><defs><style>.cls-1{fill:#231815;}</style></defs><title>logo_rite</title><g id="type_logo" data-name="type logo"><path class="cls-1" d="M395.807,73.953c-11.469-14.629-27.836-22.361-47.334-22.361-19.2,0-36.583,7.748-48.956,21.819C287.834,86.694,281.4,104.694,281.4,124.092a85,85,0,0,0,.656,10.495l-.105.017.418,2.486c.031.187.067.371.105.568l.065.341a78.4,78.4,0,0,0,5.21,17.948l.4.921c.213.487.428.973.646,1.439,6.386,13.864,16.557,24.616,29.419,31.1l.546.272c.485.24.972.475,1.444.692a65.713,65.713,0,0,0,28.269,6.225c2.782,0,5.62-.135,8.422-.4l.171-.016a75.918,75.918,0,0,0,17.817-3.862l.457-.166c.626-.227,1.252-.453,1.84-.685a77.23,77.23,0,0,0,19.7-11.026,9.51,9.51,0,0,0,2.906-11.29,9.727,9.727,0,0,0-1.939-2.875L393.8,162a9.5,9.5,0,0,0-12.622-1.03,52.007,52.007,0,0,1-31.586,10.558,47.015,47.015,0,0,1-15.587-2.494c-10.257-3.827-18.49-11.874-23.172-22.628l-.359-.866a58.266,58.266,0,0,1-2.516-8.018H401.1a10.522,10.522,0,0,0,9.714-7.09,10.082,10.082,0,0,0,.5-3.039l.092-3.3C411.4,104.586,405.861,86.779,395.807,73.953Zm-13.186,36.572H310.544a2.007,2.007,0,0,1-1.927-2.562C314.144,89,329.634,76.592,348.473,76.592c24.648,0,33.17,19.294,36.091,31.453A2,2,0,0,1,382.621,110.525Z"/><path class="cls-1" d="M264.014,150.392a10.279,10.279,0,0,0-6.568-2.246h-7.431a10.054,10.054,0,0,0-9.758,7.833,19.452,19.452,0,0,1-3.257,7.1c-2.489,3.369-5.452,5.006-9.058,5.006a12.436,12.436,0,0,1-9.25-3.709,12.1,12.1,0,0,1-3.707-8.971V81.572a2,2,0,0,1,2-2H253.46a10,10,0,0,0,10-10V62.027a10,10,0,0,0-10-10H216.985a2,2,0,0,1-2-2v-19.6a10,10,0,0,0-10-10h-7.822a10,10,0,0,0-10,10V155.41a38.812,38.812,0,0,0,3.216,15.761,41.724,41.724,0,0,0,8.726,12.8,41.265,41.265,0,0,0,12.95,8.734,39.873,39.873,0,0,0,15.887,3.211,36.009,36.009,0,0,0,15.978-3.667,40.1,40.1,0,0,0,12.824-9.91,49.276,49.276,0,0,0,8.522-14.434,46.733,46.733,0,0,0,2.244-7.814A10.023,10.023,0,0,0,264.014,150.392Z"/><rect class="cls-1" x="114.468" y="52.16" width="28.08" height="144" rx="10"/><path class="cls-1" d="M128.433,37.055a18.528,18.528,0,1,0-18.528-18.528A18.548,18.548,0,0,0,128.433,37.055Z"/><path class="cls-1" d="M77.131,54.967a9.91,9.91,0,0,0-7.618-2.5,78.621,78.621,0,0,0-21.548,5.314A82.022,82.022,0,0,0,23.113,73.367,72.793,72.793,0,0,0,6.21,96.748,68.546,68.546,0,0,0,0,125.529v60.5a10.012,10.012,0,0,0,10,10h7.564a10.012,10.012,0,0,0,10-10v-60.5a41.592,41.592,0,0,1,3.921-17.783,46.224,46.224,0,0,1,10.9-14.711,51.7,51.7,0,0,1,16.228-9.891,53.053,53.053,0,0,1,13.037-3.183,9.957,9.957,0,0,0,8.793-9.919V62.423A10.06,10.06,0,0,0,77.131,54.967Z"/></g></svg>